<svg width="45" height="45" viewBox="0 0 45 45" fill="none" xmlns="http://www.w3.org/2000/svg">
<path d="M22.5 0C34.926 0 45 10.074 45 22.5C45 34.926 34.926 45 22.5 45C10.074 45 0 34.926 0 22.5C0 10.073 10.073 0 22.5 0Z" fill="url(#paint0_linear_8381_643)"/>
<path d="M21.8756 30L14.5556 20.85C14.2226 20.434 14.0556 20.226 14.0116 19.976C13.9676 19.726 14.0516 19.473 14.2196 18.968L14.9636 16.735C15.4036 15.415 15.6236 14.755 16.1476 14.378C16.6716 14 17.3676 14 18.7586 14H24.9926C26.3836 14 27.0796 14 27.6026 14.378C28.1276 14.755 28.3476 15.415 28.7876 16.735L29.5316 18.968C29.6996 19.473 29.7836 19.725 29.7396 19.976C29.6946 20.226 29.5286 20.434 29.1956 20.85L21.8756 30ZM21.8756 30L25.3756 19M21.8756 30L18.3756 19M25.3756 19L29.3756 20M25.3756 19L23.8756 15M25.3756 19H18.3756M18.3756 19L19.8756 15M18.3756 19L14.3756 20" stroke="white" stroke-width="2" stroke-linecap="round"/>
<defs>
<linearGradient id="paint0_linear_8381_643" x1="39.8311" y1="18.7873" x2="8.3028" y2="25.5415" gradientUnits="userSpaceOnUse">
<stop stop-color="#31E6FF"/>
<stop offset="1" stop-color="#61A7FD"/>
</linearGradient>
</defs>
</svg>
