<?xml version="1.0" encoding="utf-8"?>
<!-- Generator: Adobe Illustrator 17.0.0, SVG Export Plug-In . SVG Version: 6.00 Build 0)  -->
<!DOCTYPE svg PUBLIC "-//W3C//DTD SVG 1.1//EN" "http://www.w3.org/Graphics/SVG/1.1/DTD/svg11.dtd">
<svg version="1.1" id="Layer_1" xmlns="http://www.w3.org/2000/svg" xmlns:xlink="http://www.w3.org/1999/xlink" x="0px" y="0px"
	 width="15px" height="16px" viewBox="0 0 15 16" enable-background="new 0 0 15 16" xml:space="preserve">
<path fill="#AAACAF" d="M13.128,1.684h-0.82V0h-1.641v1.684H4.103V0H2.462v1.684H1.641c-0.435,0-0.853,0.177-1.16,0.493
	C0.173,2.493,0,2.922,0,3.368v10.947c0,0.447,0.173,0.875,0.481,1.191C0.788,15.823,1.206,16,1.641,16h11.487
	c0.435,0,0.853-0.177,1.16-0.493c0.308-0.316,0.481-0.744,0.481-1.191V3.368c0-0.447-0.173-0.875-0.481-1.191
	C13.981,1.862,13.563,1.684,13.128,1.684z M13.128,14.316H1.641V5.053h11.487V14.316z"/>
</svg>
