<?xml version="1.0" encoding="utf-8"?>
<!-- Generator: Adobe Illustrator 17.0.0, SVG Export Plug-In . SVG Version: 6.00 Build 0)  -->
<!DOCTYPE svg PUBLIC "-//W3C//DTD SVG 1.1//EN" "http://www.w3.org/Graphics/SVG/1.1/DTD/svg11.dtd">
<svg version="1.1" id="Layer_1" xmlns="http://www.w3.org/2000/svg" xmlns:xlink="http://www.w3.org/1999/xlink" x="0px" y="0px"
	 width="19px" height="20px" viewBox="0 0 19 20" enable-background="new 0 0 19 20" xml:space="preserve">
<path d="M16.483,2.5h-1.978V0.469C14.505,0.211,14.283,0,14.011,0h-1.648c-0.272,0-0.495,0.211-0.495,0.469V2.5H6.593V0.469
	C6.593,0.211,6.371,0,6.099,0H4.451C4.179,0,3.956,0.211,3.956,0.469V2.5H1.978C0.886,2.5,0,3.34,0,4.375v13.75
	C0,19.16,0.886,20,1.978,20h14.505c1.092,0,1.978-0.84,1.978-1.875V4.375C18.462,3.34,17.576,2.5,16.483,2.5z M16.236,18.125H2.225
	c-0.136,0-0.247-0.105-0.247-0.234V6.25h14.505v11.641C16.483,18.02,16.372,18.125,16.236,18.125z"/>
</svg>
