<svg width="46" height="46" viewBox="0 0 46 46" fill="none" xmlns="http://www.w3.org/2000/svg">
<path d="M23 0C10.3181 0 0 10.3181 0 23C0 35.6819 10.3181 46 23 46C35.6819 46 46 35.6819 46 23C46 10.3181 35.6819 0 23 0ZM23 43.7C11.5864 43.7 2.3 34.4138 2.3 23C2.3 11.5862 11.5862 2.3 23 2.3C34.4138 2.3 43.7 11.5862 43.7 23C43.7 34.4138 34.4138 43.7 23 43.7Z" fill="white"/>
<path d="M23.0002 4.67578C12.8962 4.67578 4.67627 12.8959 4.67627 22.9998C4.67627 33.1036 12.8964 41.3237 23.0002 41.3237C33.1041 41.3237 41.3242 33.1036 41.3242 22.9998C41.3242 12.8959 33.1041 4.67578 23.0002 4.67578ZM23.0002 39.6809C13.8021 39.6809 6.31912 32.1978 6.31912 22.9998C6.31912 13.8013 13.8022 6.31864 23.0002 6.31864C32.1983 6.31864 39.6813 13.8017 39.6813 22.9998C39.6813 32.1978 32.1983 39.6809 23.0002 39.6809Z" fill="white"/>
<path d="M23.0198 15.2888C23.6271 15.2888 24.223 15.3603 24.7999 15.496C24.8046 15.4971 24.809 15.4982 24.8138 15.4989C26.1879 15.8249 27.4489 16.5239 28.4729 17.5473C28.9221 17.9962 29.6504 17.9965 30.0988 17.5473C30.548 17.0981 30.548 16.3702 30.0988 15.921C28.9819 14.804 27.6459 13.9863 26.1897 13.5017V10.4298C26.1897 9.7947 25.6748 9.27979 25.0397 9.27979C24.4045 9.27979 23.8897 9.7947 23.8897 10.4298V13.0279C23.6018 13.0034 23.3121 12.9883 23.0198 12.9883C22.7276 12.9883 22.4375 13.003 22.1496 13.0279V10.4298C22.1496 9.7947 21.6348 9.27979 20.9996 9.27979C20.3645 9.27979 19.8496 9.7947 19.8496 10.4298V13.5017C18.3934 13.9865 17.0579 14.8043 15.9409 15.921C14.0497 17.8118 13.0083 20.3259 13.0083 23.0003C13.0083 25.6747 14.0498 28.1885 15.9409 30.0792C17.0578 31.1962 18.3934 32.0139 19.8496 32.4984V35.5704C19.8496 36.2055 20.3645 36.7204 20.9996 36.7204C21.6348 36.7204 22.1496 36.2055 22.1496 35.5704V32.9722C22.4375 32.9968 22.7276 33.0118 23.0198 33.0118C23.3121 33.0118 23.6022 32.9972 23.8897 32.9722V35.5704C23.8897 36.2055 24.4045 36.7204 25.0397 36.7204C25.6748 36.7204 26.1897 36.2055 26.1897 35.5704V32.4988C27.6463 32.014 28.9818 31.1963 30.0988 30.0793C30.548 29.6305 30.548 28.9022 30.0988 28.4533C29.6496 28.0041 28.9221 28.0041 28.4729 28.4533C27.4487 29.4772 26.1871 30.1762 24.8128 30.5021C24.8091 30.5029 24.8054 30.5036 24.8018 30.5043C24.2246 30.6404 23.6279 30.7119 23.02 30.7119C22.4153 30.7119 21.8223 30.6407 21.248 30.5065C21.2385 30.5047 21.2293 30.5018 21.2198 30.5003C19.8483 30.1736 18.5893 29.4753 17.567 28.4533C16.1104 26.9963 15.3084 25.0601 15.3084 23.0003C15.3084 20.9402 16.1104 19.004 17.567 17.5477C19.0236 16.0911 20.96 15.2888 23.0198 15.2888Z" fill="white"/>
</svg>
