<svg width="45" height="45" viewBox="0 0 45 45" fill="none" xmlns="http://www.w3.org/2000/svg">
<path d="M22.5 0C34.926 0 45 10.074 45 22.5C45 34.926 34.926 45 22.5 45C10.074 45 0 34.926 0 22.5C0 10.074 10.074 0 22.5 0Z" fill="url(#paint0_linear_8381_641)"/>
<path d="M21.8756 32L14.5556 22.85C14.2226 22.434 14.0556 22.226 14.0116 21.976C13.9676 21.726 14.0516 21.473 14.2196 20.968L14.9636 18.735C15.4036 17.415 15.6236 16.755 16.1476 16.378C16.6716 16 17.3676 16 18.7586 16H24.9926C26.3836 16 27.0796 16 27.6026 16.378C28.1276 16.755 28.3476 17.415 28.7876 18.735L29.5316 20.968C29.6996 21.473 29.7836 21.725 29.7396 21.976C29.6946 22.226 29.5286 22.434 29.1956 22.85L21.8756 32ZM21.8756 32L25.3756 21M21.8756 32L18.3756 21M25.3756 21L29.3756 22M25.3756 21L23.8756 17M25.3756 21H18.3756M18.3756 21L19.8756 17M18.3756 21L14.3756 22" stroke="white" stroke-width="2" stroke-linecap="round"/>
<defs>
<linearGradient id="paint0_linear_8381_641" x1="39.8315" y1="18.7872" x2="8.3032" y2="25.5416" gradientUnits="userSpaceOnUse">
<stop stop-color="#377868"/>
<stop offset="1" stop-color="#199642"/>
</linearGradient>
</defs>
</svg>
