<svg width="36" height="36" viewBox="0 0 36 36" fill="none" xmlns="http://www.w3.org/2000/svg">
<path d="M11.5996 2H5.19988C3.43263 2 2 3.43263 2 5.19988V11.5996C2 13.3669 3.43263 14.7995 5.19988 14.7995H11.5996C13.3669 14.7995 14.7995 13.3669 14.7995 11.5996V5.19988C14.7995 3.43263 13.3669 2 11.5996 2Z" stroke="#F1F1F1" stroke-width="2.5" stroke-linecap="round" stroke-linejoin="round"/>
<path d="M34.0002 8.39976C34.0002 4.86527 31.1349 2 27.6004 2C24.066 2 21.2007 4.86527 21.2007 8.39976C21.2007 11.9342 24.066 14.7995 27.6004 14.7995C31.1349 14.7995 34.0002 11.9342 34.0002 8.39976Z" stroke="#F1F1F1" stroke-width="2.5" stroke-linecap="round" stroke-linejoin="round"/>
<path d="M14.7995 27.6004C14.7995 24.066 11.9342 21.2007 8.39976 21.2007C4.86527 21.2007 2 24.066 2 27.6004C2 31.1349 4.86527 34.0002 8.39976 34.0002C11.9342 34.0002 14.7995 31.1349 14.7995 27.6004Z" stroke="#F1F1F1" stroke-width="2.5" stroke-linecap="round" stroke-linejoin="round"/>
<path d="M30.8003 21.2007H24.4006C22.6333 21.2007 21.2007 22.6333 21.2007 24.4006V30.8003C21.2007 32.5676 22.6333 34.0002 24.4006 34.0002H30.8003C32.5676 34.0002 34.0002 32.5676 34.0002 30.8003V24.4006C34.0002 22.6333 32.5676 21.2007 30.8003 21.2007Z" stroke="#F1F1F1" stroke-width="2.5" stroke-linecap="round" stroke-linejoin="round"/>
</svg>
