<svg width="62" height="62" viewBox="0 0 62 62" fill="none" xmlns="http://www.w3.org/2000/svg">
<circle cx="31" cy="31" r="31" fill="white"/>
<path d="M31.0392 11C33.7616 11 36.1024 11.9856 38.0614 13.9563C40.0204 15.9275 41 18.3299 41 21.1638C41 23.9718 40.0333 26.3483 38.1006 28.2928C36.1679 30.2372 33.8227 31.2097 31.0652 31.2097C28.1771 31.2097 25.7775 30.211 23.8662 28.2142C21.9549 26.2174 21 23.845 21 21.0982C21 19.2583 21.4448 17.5664 22.3352 16.0229C23.2251 14.4794 24.4488 13.2563 26.0068 12.3541C27.5644 11.451 29.2417 11 31.0392 11ZM31.0005 14.5841C29.2192 14.5841 27.7222 15.2032 26.5089 16.4414C25.2957 17.68 24.6889 19.2537 24.6889 21.1636C24.6889 23.2913 25.4526 24.9747 26.9802 26.2128C28.1674 27.1807 29.5291 27.6648 31.0654 27.6648C32.8027 27.6648 34.2822 27.0369 35.5042 25.7812C36.7265 24.5255 37.3378 22.9774 37.3378 21.1376C37.3378 19.3063 36.7221 17.7561 35.4913 16.4877C34.2605 15.2182 32.7633 14.5841 31.0005 14.5841Z" fill="black"/>
<path d="M21.5234 47.8525L24.1274 45.3698C25.8988 47.2421 27.8921 48.1784 30.1067 48.1784C31.9758 48.1784 33.5499 47.5396 34.8298 46.2616C36.1097 44.9835 36.7498 43.4085 36.7498 41.5361C36.7498 40.2316 36.4664 39.0732 35.8997 38.0615C35.3329 37.0494 34.5314 36.2553 33.4946 35.6788C32.4583 35.102 31.3068 34.8135 30.0403 34.8135C28.9595 34.8135 27.9721 35.0153 27.0775 35.4193C26.183 35.8233 25.1997 36.557 24.1277 37.6223L21.6032 34.9879C23.048 33.5778 24.4136 32.5996 25.699 32.0544C26.9844 31.5092 28.4519 31.2363 30.1009 31.2363C33.1416 31.2363 35.6308 32.2007 37.5677 34.1286C39.5052 36.0574 40.4735 38.5282 40.4735 41.5426C40.4735 43.4928 40.0325 45.2262 39.1506 46.7423C38.2682 48.2583 37.0049 49.4771 35.3601 50.3994C33.7156 51.3211 31.9447 51.7825 30.0477 51.7825C28.4339 51.7825 26.8803 51.4417 25.3863 50.7598C23.8928 50.0784 22.6051 49.1089 21.5234 47.8525Z" fill="black"/>
</svg>
