<?xml version="1.0" encoding="utf-8"?>
<!-- Generator: Adobe Illustrator 17.0.0, SVG Export Plug-In . SVG Version: 6.00 Build 0)  -->
<!DOCTYPE svg PUBLIC "-//W3C//DTD SVG 1.1//EN" "http://www.w3.org/Graphics/SVG/1.1/DTD/svg11.dtd">
<svg version="1.1" id="Layer_1" xmlns="http://www.w3.org/2000/svg" xmlns:xlink="http://www.w3.org/1999/xlink" x="0px" y="0px"
	 width="526px" height="438px" viewBox="0 0 526 438" enable-background="new 0 0 526 438" xml:space="preserve">
<g id="Background" display="none">
</g>
<g id="Logos">
	<g>
		<g>
			<path fill="#FFFFFF" d="M13.528,278.753h19.508L48.5,319.487l16.379-40.734h19.709l11.524,76.219H76.298l-5.561-43.871h-0.201
				l-18.296,43.871h-7.88l-17.486-43.871h-0.201l-6.372,43.871H0.592L13.528,278.753z"/>
			<path fill="#FFFFFF" d="M121.349,354.964h-18.401v-51.856h18.401V354.964z"/>
			<path fill="#FFFFFF" d="M149.347,309.785h0.201c4.245-6.267,9.405-8.386,16.579-8.386c13.947,0,19.508,8.795,19.508,21.53v32.043
				h-18.401v-25.27c0-4.951,0.811-13.65-8.29-13.65c-7.479,0-9.606,5.561-9.606,12.029v26.891h-18.401v-51.864h18.401v6.677H149.347
				z"/>
			<path fill="#FFFFFF" d="M213.657,309.785h0.201c4.245-6.267,9.405-8.386,16.579-8.386c13.947,0,19.508,8.795,19.508,21.53v32.043
				h-18.401v-25.27c0-4.951,0.811-13.65-8.29-13.65c-7.479,0-9.606,5.561-9.606,12.029v26.891h-18.401v-51.864h18.401v6.677H213.657
				z"/>
			<path fill="#FFFFFF" d="M316.615,354.964h-18.401v-5.762h-0.201c-3.234,5.152-9.606,7.479-15.664,7.479
				c-15.367,0-26.185-12.84-26.185-27.693c0-14.862,10.617-27.597,25.976-27.597c5.962,0,12.23,2.223,16.074,6.773v-5.056h18.401
				V354.964z M275.175,329.092c0,6.572,4.349,11.628,11.828,11.628c7.479,0,11.828-5.056,11.828-11.628
				c0-6.372-4.349-11.724-11.828-11.724C279.516,317.36,275.175,322.721,275.175,329.092z"/>
			<path fill="#FFFFFF" d="M344.493,308.974h0.201c3.338-5.152,9.606-7.583,15.664-7.583c15.464,0,26.185,12.936,26.185,27.798
				c0,14.958-10.617,27.493-25.976,27.493c-5.962,0-12.133-2.127-16.074-6.669v30.831H326.1v-77.736h18.393V308.974z
				 M343.891,329.092c0,6.572,4.349,11.628,11.828,11.628s11.828-5.056,11.828-11.628c0-6.372-4.349-11.724-11.828-11.724
				C348.232,317.36,343.891,322.721,343.891,329.092z"/>
			<path fill="#FFFFFF" d="M506.264,349.202h-0.201c-3.234,5.152-9.606,7.479-15.664,7.479c-15.367,0-26.185-12.84-26.185-27.693
				c0-14.862,10.617-27.597,25.976-27.597c5.962,0,12.23,2.223,16.074,6.773v-37.098h18.393v83.899h-18.393V349.202z
				 M483.217,329.092c0,6.572,4.349,11.628,11.828,11.628c7.479,0,11.828-5.056,11.828-11.628c0-6.372-4.349-11.724-11.828-11.724
				C487.566,317.36,483.217,322.721,483.217,329.092z"/>
			<polygon fill="#FFCE00" points="425.928,337.093 408.498,354.515 392.874,338.883 425.928,305.829 458.998,338.891 
				443.358,354.523 			"/>
			<circle fill="#FFFFFF" cx="112.152" cy="289.057" r="10.312"/>
		</g>
		<g>
			<polygon fill="#FFCE00" points="262.672,233.317 238.903,257.078 217.589,235.757 262.672,190.682 307.755,235.773 
				286.434,257.078 			"/>
			<path fill="#0068FF" d="M348.056,188.627c-0.177-1.717-0.602-3.403-1.356-4.959c-0.77-1.605-1.846-3.13-3.242-4.526
				l-34.747-34.747v-28.231c0-9.373-3.723-18.361-10.36-24.981l-35.935-35.871l-35.814,35.871
				c-6.604,6.62-10.312,15.584-10.312,24.933v28.616l-34.402,34.402c-2.793,2.793-4.285,6.123-4.702,9.485l0,0l0,0v81.877
				l18.473-58.709l50.42-50.749v-39.289l16.338-16.419l16.507,16.419v38.992l50.765,51.053l18.369,58.709V188.627z"/>
		</g>
		<g>
			<polygon fill="#FFCE00" points="262.616,233.317 238.855,257.078 217.541,235.757 262.616,190.682 307.707,235.773 
				286.386,257.078 			"/>
			<path fill="#0068FF" d="M343.153,179.142l-34.402-34.402v-28.616c0-9.349-3.707-18.321-10.312-24.933L262.624,55.32
				L226.81,91.191c-6.604,6.62-10.312,15.584-10.312,24.933v28.616l-34.402,34.402c-2.793,2.793-4.285,6.123-4.702,9.485l0,0v81.877
				l18.473-58.709l50.42-50.749v-39.297l16.338-16.419l0,0l16.338,16.419v39.305l50.42,50.749l18.473,58.709v-81.885l0,0
				C347.438,185.265,345.945,181.935,343.153,179.142z"/>
		</g>
	</g>
</g>
</svg>
