<?xml version="1.0" encoding="utf-8"?>
<!-- Generator: Adobe Illustrator 17.0.0, SVG Export Plug-In . SVG Version: 6.00 Build 0)  -->
<!DOCTYPE svg PUBLIC "-//W3C//DTD SVG 1.1//EN" "http://www.w3.org/Graphics/SVG/1.1/DTD/svg11.dtd">
<svg version="1.1" id="Layer_1" xmlns="http://www.w3.org/2000/svg" xmlns:xlink="http://www.w3.org/1999/xlink" x="0px" y="0px"
	 width="2721.271px" height="1428.143px" viewBox="0 0 2721.271 1428.143" enable-background="new 0 0 2721.271 1428.143"
	 xml:space="preserve">
<rect x="-293.667" y="-27.417" display="none" fill="#332627" stroke="#000000" stroke-miterlimit="10" width="2721.271" height="1428.143"/>
<path fill="#0081F9" d="M273.674,18.18c-0.926,0.481-1.922,0.806-2.969,0.953c1.08-0.757,1.888-1.948,2.273-3.352
	c-1.014,0.706-2.125,1.203-3.283,1.469c-0.778-0.974-1.81-1.62-2.934-1.837s-2.278,0.007-3.282,0.637s-1.803,1.631-2.272,2.847
	s-0.582,2.58-0.322,3.879c-2.056-0.121-4.067-0.747-5.903-1.837c-1.836-1.09-3.456-2.621-4.754-4.492
	c-0.444,0.896-0.699,1.937-0.699,3.045c-0.001,0.997,0.209,1.979,0.61,2.859s0.981,1.63,1.689,2.183
	c-0.821-0.031-1.624-0.291-2.342-0.758v0.078c0,1.399,0.413,2.754,1.169,3.837c0.756,1.083,1.809,1.825,2.979,2.102
	c-0.762,0.241-1.56,0.277-2.335,0.104c0.33,1.203,0.973,2.256,1.839,3.01s1.912,1.172,2.991,1.195
	c-1.831,1.684-4.093,2.598-6.422,2.594c-0.412,0-0.824-0.028-1.234-0.085c2.364,1.78,5.115,2.725,7.925,2.721
	c9.511,0,14.711-9.229,14.711-17.233c0-0.26-0.005-0.523-0.015-0.783c1.011-0.857,1.884-1.918,2.578-3.134L273.674,18.18z"/>
<path fill="#0081F9" d="M210.846,39.333h5.052V29.215h4.553l0.5-5.027h-5.053v-2.539c0-0.335,0.133-0.656,0.37-0.893
	s0.558-0.37,0.893-0.37h3.79v-5.053h-3.79c-1.675,0-3.281,0.665-4.466,1.85c-1.184,1.184-1.849,2.791-1.849,4.466v2.539h-2.527
	l-0.5,5.027h3.027V39.333z"/>
<path fill="#0081F9" d="M160.324,18.001c0,0.707-0.282,1.385-0.782,1.885s-1.179,0.78-1.886,0.78s-1.385-0.282-1.885-0.782
	s-0.781-1.179-0.78-1.886c0-0.707,0.282-1.385,0.782-1.885s1.179-0.78,1.886-0.78s1.385,0.282,1.885,0.782
	C160.044,16.615,160.325,17.294,160.324,18.001z M160.404,22.641h-5.333v16.692h5.333L160.404,22.641L160.404,22.641z
	 M168.83,22.641h-5.306v16.692h5.253v-8.76c0-4.88,6.36-5.333,6.36,0v8.76h5.266V28.761c0-8.226-9.413-7.92-11.626-3.88
	L168.83,22.641z"/>
<path fill="#0081F9" d="M304.762,30.332l7.785-4.5l-7.785-4.5V30.332z M322.101,18.588c0.195,0.705,0.331,1.65,0.419,2.85
	c0.105,1.2,0.151,2.235,0.151,3.135l0.091,1.26c0,3.285-0.241,5.7-0.661,7.245c-0.375,1.35-1.244,2.22-2.595,2.595
	c-0.705,0.195-1.994,0.33-3.975,0.42c-1.95,0.105-3.735,0.15-5.384,0.15l-2.386,0.09c-6.285,0-10.199-0.24-11.745-0.66
	c-1.35-0.375-2.22-1.245-2.595-2.595c-0.195-0.705-0.33-1.65-0.42-2.85c-0.105-1.2-0.15-2.235-0.15-3.135l-0.09-1.26
	c0-3.285,0.24-5.7,0.66-7.245c0.375-1.35,1.245-2.22,2.595-2.595c0.705-0.195,1.995-0.33,3.975-0.42
	c1.949-0.105,3.734-0.15,5.385-0.15l2.385-0.09c6.286,0,10.199,0.24,11.745,0.66C320.858,16.368,321.726,17.238,322.101,18.588z"/>
<path fill="#0081F9" d="M365.587,15.497c0.345-0.145,0.723-0.196,1.095-0.145c0.371,0.05,0.723,0.199,1.017,0.431
	c0.295,0.232,0.521,0.539,0.657,0.888c0.135,0.349,0.175,0.729,0.113,1.099L365.299,37c-0.308,1.855-2.343,2.919-4.044,1.995
	c-1.423-0.773-3.536-1.964-5.437-3.206c-0.951-0.622-3.862-2.614-3.506-4.031c0.309-1.212,5.2-5.766,7.996-8.473
	c1.098-1.064,0.598-1.677-0.698-0.699c-3.22,2.429-8.385,6.124-10.093,7.164c-1.507,0.917-2.293,1.073-3.231,0.917
	c-1.714-0.285-3.303-0.727-4.601-1.265c-1.753-0.727-1.668-3.137-0.001-3.838L365.587,15.497z"/>
<path fill="#0081F9" d="M404.979,27.333c0,0.759-0.225,1.502-0.646,2.133c-0.422,0.631-1.022,1.124-1.723,1.414
	c-0.702,0.291-1.475,0.367-2.22,0.218c-0.745-0.148-1.429-0.514-1.966-1.051s-0.902-1.221-1.051-1.966s-0.072-1.517,0.218-2.219
	c0.291-0.702,0.783-1.301,1.415-1.723c0.631-0.422,1.374-0.647,2.133-0.647c1.018,0.003,1.992,0.409,2.712,1.128
	C404.57,25.341,404.976,26.316,404.979,27.333z M413.139,22.053v10.56c0,1.782-0.708,3.491-1.968,4.752
	c-1.26,1.26-2.97,1.968-4.752,1.968h-10.56c-1.782,0-3.492-0.708-4.752-1.968c-1.261-1.26-1.969-2.97-1.969-4.752v-10.56
	c0-1.782,0.708-3.492,1.969-4.752c1.26-1.26,2.97-1.968,4.752-1.968h10.56c1.782,0,3.492,0.708,4.752,1.968
	C412.431,18.562,413.139,20.271,413.139,22.053z M406.899,27.333c0-1.139-0.339-2.253-0.972-3.2s-1.531-1.685-2.585-2.121
	c-1.052-0.436-2.21-0.55-3.328-0.328c-1.116,0.222-2.143,0.771-2.948,1.576c-0.806,0.806-1.354,1.832-1.576,2.949
	c-0.224,1.117-0.109,2.275,0.327,3.328s1.175,1.952,2.122,2.585c0.946,0.633,2.061,0.971,3.199,0.971
	c1.528,0,2.993-0.607,4.073-1.687C406.292,30.326,406.899,28.861,406.899,27.333z M408.819,21.093c0-0.285-0.084-0.563-0.243-0.8
	c-0.158-0.237-0.383-0.421-0.646-0.53c-0.263-0.109-0.553-0.137-0.832-0.082c-0.278,0.056-0.535,0.193-0.736,0.394
	c-0.202,0.201-0.34,0.458-0.395,0.737c-0.056,0.279-0.027,0.569,0.082,0.832s0.293,0.488,0.53,0.646s0.515,0.243,0.8,0.243
	c0.382,0,0.748-0.152,1.018-0.422C408.667,21.841,408.819,21.475,408.819,21.093z"/>
<path fill="#0081F9" d="M132.12,13.333c-0.182,0-0.363,0.036-0.532,0.106s-0.322,0.172-0.451,0.301s-0.231,0.282-0.301,0.451
	c-0.07,0.169-0.106,0.349-0.105,0.532v0.884c-1.171,1.452-2.652,2.625-4.334,3.433s-3.523,1.231-5.389,1.238h-8.333
	c-1.105,0.001-2.164,0.441-2.945,1.222s-1.221,1.84-1.222,2.945v2.778c0.001,1.105,0.441,2.164,1.222,2.945s1.84,1.221,2.945,1.222
	h0.672l-3.337,7.787c-0.091,0.211-0.128,0.442-0.107,0.671c0.02,0.229,0.097,0.449,0.224,0.641c0.127,0.192,0.299,0.349,0.501,0.458
	c0.202,0.109,0.429,0.166,0.659,0.166h5.556c0.272,0,0.538-0.08,0.765-0.229c0.227-0.15,0.405-0.363,0.512-0.613l3.783-8.827
	c1.709,0.126,3.375,0.6,4.893,1.394c1.519,0.794,2.858,1.891,3.936,3.224v0.885c0,0.368,0.146,0.722,0.407,0.982
	c0.26,0.261,0.614,0.407,0.982,0.407s0.722-0.146,0.982-0.407s0.407-0.614,0.407-0.982V14.722c0-0.182-0.036-0.363-0.105-0.532
	c-0.07-0.169-0.172-0.322-0.301-0.451c-0.129-0.129-0.282-0.231-0.451-0.301C132.483,13.369,132.302,13.333,132.12,13.333z
	 M112.675,28.611c-0.368,0-0.721-0.147-0.982-0.407c-0.26-0.26-0.407-0.614-0.407-0.982v-2.778c0-0.368,0.147-0.721,0.407-0.982
	c0.26-0.26,0.614-0.407,0.982-0.407h1.389v5.556H112.675z M115.927,38.333h-2.534l2.976-6.944h2.534L115.927,38.333z"/>
<path fill="#FFFFFF" d="M189.186,290.821l-1.775-1.775l8.225-8.225l-8.225-8.225l1.775-1.775l10,10L189.186,290.821z"/>
<path fill="#FFFFFF" d="M163.645,290.5l1.775-1.775l-8.225-8.225l8.225-8.225l-1.775-1.775l-10,10L163.645,290.5z"/>
<path fill="#FFFFFF" d="M235.281,287.766l-1.235-1.235l5.722-5.722l-5.722-5.722l1.235-1.235l6.957,6.957L235.281,287.766z"/>
<path fill="#FFFFFF" d="M290.922,285.755l-1.009-1.009l4.674-4.674l-4.674-4.674l1.009-1.009l5.683,5.683L290.922,285.755z"/>
<path fill="#FFFFFF" d="M296.922,285.755l-1.009-1.009l4.674-4.674l-4.674-4.674l1.009-1.009l5.683,5.683L296.922,285.755z"/>
<path fill="#FFFFFF" d="M219.336,287.766l1.235-1.235l-5.722-5.722l5.722-5.722l-1.235-1.235l-6.956,6.957L219.336,287.766z"/>
<g>
	
		<linearGradient id="SVGID_1_" gradientUnits="userSpaceOnUse" x1="-2581.2175" y1="-9085.9521" x2="-2581.0603" y2="-9048.9531" gradientTransform="matrix(1 0 0 1 3104.5 9012.8574)">
		<stop  offset="0.2188" style="stop-color:#00D7FF"/>
		<stop  offset="0.9792" style="stop-color:#0096FF"/>
	</linearGradient>
	<circle fill="url(#SVGID_1_)" fill-opacity="0.07" cx="523.361" cy="-54.595" r="18.5"/>
	
		<linearGradient id="SVGID_2_" gradientUnits="userSpaceOnUse" x1="-4678.4751" y1="11386.5928" x2="-4674.0103" y2="11386.6113" gradientTransform="matrix(1 0 0 -1 5202.1396 11329.3389)">
		<stop  offset="0.2188" style="stop-color:#00D7FF"/>
		<stop  offset="0.9792" style="stop-color:#0096FF"/>
	</linearGradient>
	<circle fill="url(#SVGID_2_)" cx="527.118" cy="-57.268" r="3.842"/>
	<g>
		<path fill="#FFFFFF" d="M525.278-57.268c0-1.017,0.825-1.841,1.842-1.841c1.017,0,1.841,0.824,1.841,1.841c0,0.013,0,0.027,0,0.04
			h-3.682C525.278-57.241,525.278-57.255,525.278-57.268z M521.278-57.228c0-0.013,0-0.026,0-0.04c0-0.688,0.119-1.348,0.337-1.96
			h-6.02c-0.552,0-1,0.448-1,1s0.448,1,1,1H521.278z M522.014-54.426c0.447,0.802,1.078,1.487,1.835,2h-8.255c-0.552,0-1-0.448-1-1
			s0.448-1,1-1H522.014z M515.594-49.624c-0.552,0-1,0.447-1,1s0.448,1,1,1h13.446c0.552,0,1-0.447,1-1s-0.448-1-1-1H515.594z"/>
	</g>
</g>
<g display="none">
	
		<linearGradient id="SVGID_3_" gradientUnits="userSpaceOnUse" x1="16369.9463" y1="31684.7559" x2="16406.9473" y2="31684.5996" gradientTransform="matrix(6.123234e-017 1 -1 6.123234e-017 32202.4805 -16303)">
		<stop  offset="0.2188" style="stop-color:#00D7FF"/>
		<stop  offset="0.9792" style="stop-color:#0096FF"/>
	</linearGradient>
	<circle display="inline" fill="#EAEAEA" fill-opacity="0.07" stroke="url(#SVGID_3_)" cx="517.803" cy="85.447" r="18"/>
	
		<linearGradient id="SVGID_4_" gradientUnits="userSpaceOnUse" x1="-5309.2749" y1="-11737.8916" x2="-5308.062" y2="-11737.8916" gradientTransform="matrix(1 0 0 1 5826.1396 11823.3389)">
		<stop  offset="0.2188" style="stop-color:#00D7FF"/>
		<stop  offset="0.9792" style="stop-color:#0096FF"/>
	</linearGradient>
	<path display="inline" fill="url(#SVGID_4_)" d="M517.803,78.143c0.277,0,0.542,0.11,0.738,0.306s0.306,0.461,0.306,0.738v9.391
		c0,0.277-0.11,0.542-0.306,0.738c-0.196,0.196-0.461,0.306-0.738,0.306c-0.276,0-0.542-0.11-0.738-0.306s-0.306-0.461-0.306-0.738
		v-9.391c0-0.277,0.11-0.542,0.306-0.738C517.261,78.253,517.526,78.143,517.803,78.143z M517.803,92.751
		c0.277,0,0.542-0.11,0.738-0.306s0.306-0.461,0.306-0.738s-0.11-0.542-0.306-0.738c-0.196-0.196-0.461-0.306-0.738-0.306
		c-0.276,0-0.542,0.11-0.738,0.306s-0.306,0.461-0.306,0.738s0.11,0.542,0.306,0.738C517.261,92.641,517.526,92.751,517.803,92.751z
		"/>
</g>
<g id="Layer_2">
</g>
<linearGradient id="SVGID_5_" gradientUnits="userSpaceOnUse" x1="-2776.0906" y1="-9094.4023" x2="-2775.8972" y2="-9048.8379" gradientTransform="matrix(1 0 0 1 3104.5 9012.8574)">
	<stop  offset="0.2188" style="stop-color:#00D7FF"/>
	<stop  offset="0.9792" style="stop-color:#0096FF"/>
</linearGradient>
<rect x="301.135" y="-81.429" fill="url(#SVGID_5_)" width="54.742" height="45.333"/>
<line fill="none" stroke="#D4D3F0" stroke-width="2" x1="250.75" y1="280.75" x2="258.75" y2="280.75"/>
<path fill="#D4D3F0" d="M272,284.5v-3h-3v-2h3v-3h2v3h3v2h-3v3H272z"/>
<path fill="#FFFFFF" d="M327.453,286.238v0.877c0,0.465-0.185,0.912-0.514,1.241s-0.775,0.514-1.241,0.514h-12.283
	c-0.465,0-0.912-0.185-1.241-0.514s-0.514-0.775-0.514-1.241v-12.283c0-0.465,0.185-0.912,0.514-1.241s0.775-0.514,1.241-0.514
	h12.283c0.465,0,0.912,0.185,1.241,0.514s0.514,0.775,0.514,1.241v0.877h-7.896c-0.465,0-0.912,0.185-1.241,0.514
	s-0.514,0.775-0.514,1.241v7.019c0,0.465,0.185,0.912,0.514,1.241s0.775,0.514,1.241,0.514 M319.557,284.484h8.774v-7.019h-8.774
	 M323.066,282.29c-0.349,0-0.684-0.139-0.931-0.385c-0.247-0.247-0.385-0.582-0.385-0.931s0.139-0.684,0.385-0.931
	c0.247-0.247,0.582-0.385,0.931-0.385s0.684,0.139,0.931,0.385c0.247,0.247,0.385,0.582,0.385,0.931s-0.139,0.684-0.385,0.931
	C323.75,282.152,323.415,282.29,323.066,282.29z"/>
<path fill="#FFFFFF" d="M1384.724,77.829l1.867-1.867l6.133,6.1l6.133-6.1l1.867,1.867l-8,8L1384.724,77.829z M1384.724,86.629
	l1.867-1.867l6.133,6.1l6.133-6.1l1.867,1.867l-8,8L1384.724,86.629z"/>
<path fill="#0081F9" d="M1426.278,78.128l1.867-1.867l6.133,6.1l6.133-6.1l1.867,1.867l-8,8L1426.278,78.128z M1426.278,86.928
	l1.867-1.867l6.133,6.1l6.133-6.1l1.867,1.867l-8,8L1426.278,86.928z"/>
<path fill="#0081F9" d="M283.793,392.071l-1.867-1.867l6.1-6.133l-6.1-6.133l1.867-1.867l8,8L283.793,392.071z M292.592,392.071
	l-1.867-1.867l6.1-6.133l-6.1-6.133l1.867-1.867l8,8L292.592,392.071z"/>
<linearGradient id="SVGID_6_" gradientUnits="userSpaceOnUse" x1="-1512.8335" y1="8630.9648" x2="-1512.8335" y2="8653.9648" gradientTransform="matrix(1 0 0 -1 1872.5 8921.7148)">
	<stop  offset="0" style="stop-color:#87826F"/>
	<stop  offset="1" style="stop-color:#010101;stop-opacity:0.33"/>
</linearGradient>
<path fill="url(#SVGID_6_)" d="M359.667,290.75l-17.321-17.25h34.641L359.667,290.75z"/>
<linearGradient id="SVGID_7_" gradientUnits="userSpaceOnUse" x1="-1462.1665" y1="8630.9648" x2="-1462.1665" y2="8653.9648" gradientTransform="matrix(1 0 0 -1 1872.5 8921.7148)">
	<stop  offset="0" style="stop-color:#CEA100"/>
	<stop  offset="1" style="stop-color:#010101;stop-opacity:0.33"/>
</linearGradient>
<path fill="url(#SVGID_7_)" d="M410.333,290.75l-17.32-17.25h34.641L410.333,290.75z"/>
<path fill="#FFFFFF" d="M1467.536,91.52l-1.4-1.4l5.6-5.6l-5.6-5.6l1.4-1.4l5.6,5.6l5.6-5.6l1.4,1.4l-5.6,5.6l5.6,5.6l-1.4,1.4
	l-5.6-5.6L1467.536,91.52z"/>
<path fill="#FFFFFF" d="M1383.725,128.077c0-0.802,0.647-1.451,1.444-1.451h23.111c0.798,0,1.444,0.65,1.444,1.451
	c0,0.802-0.647,1.451-1.444,1.451h-23.111C1384.372,129.527,1383.725,128.879,1383.725,128.077z M1383.725,136.785
	c0-0.802,0.647-1.451,1.444-1.451h23.111c0.798,0,1.444,0.65,1.444,1.451c0,0.802-0.647,1.451-1.444,1.451h-23.111
	C1384.372,138.236,1383.725,137.586,1383.725,136.785z M1383.725,145.492c0-0.802,0.647-1.451,1.444-1.451h23.111
	c0.798,0,1.444,0.65,1.444,1.451c0,0.802-0.647,1.451-1.444,1.451h-23.111C1384.372,146.943,1383.725,146.294,1383.725,145.492z"/>
<g>
	<path fill="#FFFDFD" d="M444.57,289.922h1.532l9.439-9.439l-1.532-1.532l-9.439,9.439V289.922z M460.218,278.897l-4.651-4.596
		l1.532-1.532c0.419-0.419,0.935-0.629,1.546-0.629s1.126,0.21,1.545,0.629l1.532,1.532c0.419,0.419,0.638,0.926,0.657,1.519
		c0.018,0.592-0.182,1.098-0.602,1.518L460.218,278.897z M443.475,292.111c-0.31,0-0.57-0.105-0.779-0.315
		c-0.21-0.209-0.315-0.469-0.315-0.779v-3.092c0-0.146,0.027-0.287,0.082-0.423c0.055-0.137,0.137-0.26,0.246-0.37l11.272-11.272
		l4.651,4.651l-11.272,11.272c-0.109,0.11-0.232,0.192-0.369,0.246c-0.137,0.055-0.279,0.082-0.425,0.082H443.475z M454.774,279.717
		l-0.766-0.766l1.532,1.532L454.774,279.717z"/>
</g>
<circle fill="#D9D9D9" cx="491.861" cy="284.7" r="13"/>
<path d="M491.861,289.1c1,0,1.85-0.35,2.55-1.05c0.7-0.7,1.05-1.55,1.05-2.55s-0.35-1.85-1.05-2.55c-0.7-0.7-1.55-1.05-2.55-1.05
	s-1.85,0.35-2.55,1.05c-0.7,0.7-1.05,1.55-1.05,2.55s0.35,1.85,1.05,2.55S490.861,289.1,491.861,289.1z M491.861,287.5
	c-0.56,0-1.033-0.193-1.42-0.58c-0.387-0.387-0.58-0.86-0.58-1.42s0.193-1.033,0.58-1.42c0.387-0.387,0.86-0.58,1.42-0.58
	s1.033,0.193,1.42,0.58c0.387,0.387,0.58,0.86,0.58,1.42s-0.193,1.033-0.58,1.42C492.894,287.307,492.421,287.5,491.861,287.5z
	 M485.461,291.9c-0.44,0-0.817-0.157-1.13-0.47c-0.314-0.314-0.47-0.69-0.47-1.13v-9.6c0-0.44,0.157-0.817,0.47-1.13
	c0.313-0.314,0.69-0.47,1.13-0.47h2.52l1.48-1.6h4.8l1.48,1.6h2.52c0.44,0,0.817,0.157,1.13,0.47c0.313,0.313,0.47,0.69,0.47,1.13
	v9.6c0,0.44-0.157,0.817-0.47,1.13c-0.314,0.313-0.69,0.47-1.13,0.47H485.461z M498.261,290.3v-9.6h-3.24l-1.46-1.6h-3.4l-1.46,1.6
	h-3.24v9.6H498.261z"/>
<path fill="#FFFFFF" fill-opacity="0.5" d="M109.915,63.691c-0.273,0-0.546,0.104-0.754,0.313l-2.133,2.133
	c-0.417,0.417-0.417,1.092,0,1.508l7.779,7.779l-7.779,7.779c-0.417,0.417-0.417,1.092,0,1.508l2.133,2.133
	c0.417,0.417,1.092,0.417,1.508,0l7.779-7.779l7.779,7.779c0.416,0.417,1.092,0.417,1.508,0l2.133-2.133
	c0.417-0.417,0.417-1.092,0-1.508l-7.779-7.779l7.779-7.779c0.417-0.416,0.417-1.092,0-1.508l-2.133-2.133
	c-0.417-0.417-1.092-0.417-1.508,0l-7.779,7.779l-7.779-7.779C110.46,63.795,110.188,63.691,109.915,63.691z"/>
<path fill="#FFFFFF" fill-opacity="0.82" d="M165.47,65.424c1.078,0.011,1.956,0.566,2.467,1.565
	c0.132,0.264,0.316,0.649,0.509,1.055l0.233,0.491l0.114,0.241l0.111,0.244c0.044,0.078,0.122,0.133,0.222,0.133
	c2.667,0,4.844,2.175,4.844,4.839v6.593c0,2.664-2.178,4.839-4.844,4.839h-12.533c-2.678,0-4.844-2.175-4.844-4.839v-6.593
	c0-2.664,2.167-4.839,4.844-4.839c0.089,0,0.178-0.044,0.211-0.133l0.067-0.133c0.311-0.655,0.689-1.454,0.911-1.898
	c0.511-0.999,1.378-1.554,2.456-1.565C160.238,65.424,165.47,65.424,165.47,65.424z M162.859,72.539c-1.167,0-2.267,0.455-3.1,1.287
	c-0.822,0.832-1.278,1.92-1.267,3.074c0,1.165,0.456,2.253,1.278,3.085c0.833,0.821,1.922,1.276,3.089,1.276
	c1.2,0,2.289-0.488,3.078-1.276s1.278-1.876,1.289-3.085c0-1.154-0.456-2.253-1.278-3.085
	C165.126,72.994,164.026,72.539,162.859,72.539z M162.859,74.204c0.722,0,1.4,0.277,1.911,0.788s0.789,1.188,0.789,1.909
	c-0.011,1.487-1.211,2.697-2.7,2.697c-0.722,0-1.4-0.277-1.911-0.788c-0.511-0.51-0.789-1.188-0.789-1.909V76.89
	c-0.011-0.699,0.267-1.376,0.778-1.887C161.459,74.481,162.137,74.204,162.859,74.204z M169.092,72.272c-0.556,0-1,0.455-1,1.01
	s0.444,0.999,1,0.999s1.011-0.444,1.011-0.999S169.648,72.272,169.092,72.272z"/>
<path fill="#FFFFFF" d="M207.204,81.964c0.34,0,0.615,0.276,0.615,0.615s-0.276,0.615-0.615,0.615h-5.951
	c-0.34,0-0.615-0.276-0.615-0.615s0.276-0.615,0.615-0.615H207.204z M203.401,68.191c0.041,0.032,1.414,1.099,1.414,1.099
	c0.499,0.297,0.889,0.828,1.036,1.456c0.147,0.622,0.04,1.264-0.302,1.806c-0.002,0.004-0.005,0.007-0.013,0.018l-0.006,0.008
	c-0.055,0.073-0.297,0.378-1.515,1.905c-0.011,0.02-0.024,0.039-0.038,0.057c-0.02,0.027-0.043,0.052-0.067,0.074
	c-0.083,0.105-0.171,0.215-0.263,0.33l-0.187,0.234c-0.386,0.483-0.843,1.056-1.387,1.736l-0.279,0.349
	c-1.048,1.312-2.391,2.992-4.111,5.144c-0.377,0.469-0.941,0.743-1.547,0.75l-2.986,0.038h-0.008c-0.285,0-0.533-0.195-0.599-0.473
	l-0.672-2.848c-0.139-0.59-0.001-1.199,0.377-1.671l7.729-9.667c0.003-0.003,0.006-0.007,0.009-0.011
	C200.835,67.511,202.367,67.361,203.401,68.191z M199.116,71.582l-5.906,7.388c-0.14,0.176-0.192,0.402-0.14,0.619l0.559,2.367
	l2.493-0.031c0.237-0.002,0.456-0.108,0.601-0.289c0.748-0.936,1.688-2.112,2.654-3.321l0.342-0.428l0.342-0.429
	c0.906-1.134,1.802-2.255,2.551-3.193L199.116,71.582z M200.935,69.309l-1.05,1.311l3.496,2.684
	c0.673-0.843,1.116-1.398,1.157-1.451c0.134-0.218,0.187-0.527,0.117-0.824c-0.072-0.304-0.262-0.563-0.535-0.728
	c-0.058-0.04-1.441-1.113-1.483-1.147C202.116,68.738,201.357,68.81,200.935,69.309z"/>
<path fill="#0081F9" d="M224.188,72.824c0.172-0.172,0.441-0.187,0.63-0.047l0.054,0.047l4.174,4.174l4.174-4.174
	c0.172-0.172,0.441-0.187,0.63-0.047l0.054,0.047c0.172,0.172,0.187,0.441,0.047,0.63l-0.047,0.054l-4.516,4.516
	c-0.172,0.172-0.441,0.187-0.63,0.047l-0.054-0.047l-4.516-4.516C223.999,73.32,223.999,73.013,224.188,72.824z"/>
<path fill="#0081F9" d="M207.204,112.34c0.34,0,0.615,0.276,0.615,0.615s-0.276,0.615-0.615,0.615h-5.951
	c-0.34,0-0.615-0.276-0.615-0.615s0.276-0.615,0.615-0.615H207.204z M203.401,98.567c0.041,0.032,1.414,1.099,1.414,1.099
	c0.499,0.297,0.889,0.828,1.036,1.456c0.147,0.622,0.04,1.264-0.302,1.806c-0.002,0.004-0.005,0.007-0.013,0.018l-0.006,0.008
	c-0.055,0.073-0.297,0.378-1.515,1.905c-0.011,0.02-0.024,0.039-0.038,0.057c-0.02,0.027-0.043,0.052-0.067,0.074
	c-0.083,0.105-0.171,0.215-0.263,0.33l-0.187,0.234c-0.386,0.483-0.843,1.056-1.387,1.736l-0.279,0.349
	c-1.048,1.312-2.391,2.992-4.111,5.144c-0.377,0.469-0.941,0.743-1.547,0.75l-2.986,0.038h-0.008c-0.285,0-0.533-0.195-0.599-0.473
	l-0.672-2.848c-0.139-0.59-0.001-1.199,0.377-1.671l7.729-9.667c0.003-0.003,0.006-0.007,0.009-0.011
	C200.835,97.887,202.367,97.737,203.401,98.567z M199.116,101.958l-5.906,7.388c-0.14,0.176-0.192,0.402-0.14,0.619l0.559,2.367
	l2.493-0.031c0.237-0.002,0.456-0.108,0.601-0.289c0.748-0.936,1.688-2.112,2.654-3.321l0.342-0.428l0.342-0.429
	c0.906-1.134,1.802-2.255,2.551-3.193L199.116,101.958z M200.935,99.685l-1.05,1.311l3.496,2.684
	c0.673-0.843,1.116-1.398,1.157-1.451c0.134-0.218,0.187-0.527,0.117-0.824c-0.072-0.304-0.262-0.563-0.535-0.728
	c-0.058-0.04-1.441-1.113-1.483-1.147C202.116,99.114,201.357,99.186,200.935,99.685z"/>
<path fill="#FFFFFF" d="M253.259,72.826c0.172-0.172,0.441-0.187,0.63-0.047l0.054,0.047l4.174,4.173l4.174-4.174
	c0.172-0.172,0.441-0.187,0.63-0.047l0.054,0.047c0.172,0.172,0.187,0.441,0.047,0.63l-0.047,0.054l-4.516,4.516
	c-0.172,0.172-0.441,0.187-0.63,0.047l-0.054-0.047l-4.516-4.516C253.07,73.321,253.07,73.015,253.259,72.826z"/>
<path fill="#FFFFFF" fill-opacity="0.5" d="M292.761,66.425c-1.78,0-3.52,0.528-5,1.517s-2.634,2.395-3.315,4.039
	s-0.859,3.454-0.512,5.2c0.347,1.746,1.204,3.349,2.463,4.608s2.862,2.116,4.608,2.463s3.555,0.169,5.2-0.512
	c1.645-0.681,3.05-1.835,4.039-3.315s1.517-3.22,1.517-5c-0.003-2.386-0.952-4.674-2.639-6.361S295.147,66.427,292.761,66.425z
	 M292.761,83.04c-1.506,0-2.979-0.447-4.231-1.283c-1.252-0.837-2.228-2.026-2.805-3.418s-0.727-2.923-0.433-4.4
	c0.294-1.477,1.019-2.834,2.084-3.899s2.422-1.79,3.899-2.084s3.008-0.143,4.4,0.433s2.581,1.552,3.418,2.805
	c0.837,1.252,1.283,2.725,1.283,4.231c-0.002,2.019-0.805,3.955-2.233,5.382C296.715,82.235,294.78,83.038,292.761,83.04z
	 M294.145,79.579c0,0.184-0.073,0.36-0.203,0.49s-0.306,0.203-0.49,0.203c-0.367,0-0.719-0.146-0.979-0.406
	s-0.406-0.612-0.406-0.979v-3.462c-0.184,0-0.36-0.073-0.49-0.203s-0.203-0.306-0.203-0.49s0.073-0.36,0.203-0.49
	s0.306-0.203,0.49-0.203c0.367,0,0.719,0.146,0.979,0.406s0.406,0.612,0.406,0.979v3.462c0.184,0,0.36,0.073,0.49,0.203
	S294.145,79.395,294.145,79.579z M291.376,71.617c0-0.205,0.061-0.406,0.175-0.577c0.114-0.171,0.276-0.304,0.466-0.383
	s0.399-0.099,0.6-0.059c0.201,0.04,0.387,0.139,0.532,0.284c0.145,0.145,0.244,0.33,0.284,0.532c0.04,0.201,0.02,0.41-0.059,0.6
	c-0.079,0.19-0.212,0.352-0.382,0.466c-0.171,0.114-0.372,0.175-0.577,0.175c-0.275,0-0.54-0.109-0.734-0.304
	C291.485,72.157,291.376,71.893,291.376,71.617z"/>
<path fill="none" stroke="#9A9C9C" stroke-width="1.5" stroke-linecap="round" stroke-linejoin="round" d="M531.56,292.498
	c2.249,0,4.406-0.948,5.997-2.636s2.484-3.977,2.484-6.364c0-2.387-0.893-4.676-2.484-6.364c-1.59-1.688-3.747-2.636-5.997-2.636
	c-2.249,0-4.406,0.948-5.997,2.636c-1.59,1.688-2.484,3.977-2.484,6.364c0,2.387,0.893,4.676,2.484,6.364
	C527.154,291.55,529.311,292.498,531.56,292.498z M539.033,293.188c0.499,1.6,1.64,1.76,2.516,0.36
	c0.801-1.28,0.273-2.33-1.178-2.33C539.297,291.208,538.694,292.098,539.033,293.188z"/>
<path fill="none" stroke="#FFCE00" stroke-width="1.2656" stroke-linecap="round" stroke-linejoin="round" d="M159.532,334.122
	l1.896,3.841l4.24,0.62l-3.068,2.988l0.724,4.222l-3.792-1.994l-3.792,1.994l0.724-4.222l-3.068-2.988l4.24-0.62L159.532,334.122z"
	/>
<path fill="#FFCE00" stroke="#FFCE00" stroke-width="1.2656" stroke-linecap="round" stroke-linejoin="round" d="M181.275,334.122
	l1.896,3.841l4.24,0.62l-3.068,2.988l0.724,4.222l-3.792-1.994l-3.792,1.994l0.724-4.222l-3.068-2.988l4.24-0.62L181.275,334.122z"
	/>
<path fill="#FFCE00" d="M156.866,382.566h-1.778v1.778h1.778V382.566z M160.421,382.566h-1.778v1.778h1.778V382.566z
	 M163.977,382.566h-1.778v1.778h1.778V382.566z M165.755,376.344h-0.889v-1.778h-1.778v1.778h-7.111v-1.778h-1.778v1.778h-0.889
	c-0.471,0-0.924,0.187-1.257,0.521c-0.333,0.333-0.521,0.786-0.521,1.257v12.444c0,0.471,0.187,0.924,0.521,1.257
	c0.333,0.333,0.786,0.521,1.257,0.521h12.444c0.471,0,0.924-0.187,1.257-0.521c0.333-0.333,0.521-0.786,0.521-1.257v-12.444
	c0-0.471-0.187-0.924-0.521-1.257C166.678,376.531,166.226,376.344,165.755,376.344z M165.755,390.566H153.31v-9.778h12.444v9.778
	L165.755,390.566L165.755,390.566z"/>
<path fill="#FFCE00" d="M190.052,373.616c-4.2,0-8,3.22-8,8.2c0,3.18,2.45,6.92,7.34,11.23c0.38,0.33,0.95,0.33,1.33,0
	c4.88-4.31,7.33-8.05,7.33-11.23C198.052,376.836,194.252,373.616,190.052,373.616z M190.052,383.616c-1.1,0-2-0.9-2-2s0.9-2,2-2
	s2,0.9,2,2S191.152,383.616,190.052,383.616z"/>
<g>
	<path fill="#FFCE00" d="M227.729,389.199v0.957c0,1.053-0.758,1.915-1.684,1.915h-11.79c-0.447,0-0.875-0.202-1.191-0.561
		s-0.493-0.846-0.493-1.354v-13.402c0-0.508,0.177-0.995,0.493-1.354s0.744-0.561,1.191-0.561h11.79
		c0.926,0,1.684,0.862,1.684,1.915v0.957h-7.579c-0.447,0-0.875,0.202-1.191,0.561s-0.493,0.846-0.493,1.354v7.658
		c0,0.508,0.177,0.995,0.493,1.354s0.744,0.561,1.191,0.561H227.729z M220.15,387.284h8.421v-7.658h-8.421V387.284z
		 M223.518,384.891c-0.699,0-1.263-0.641-1.263-1.436s0.564-1.436,1.263-1.436s1.263,0.641,1.263,1.436
		S224.217,384.891,223.518,384.891z"/>
</g>
<g>
	<path fill="none" stroke="#FFCE00" stroke-width="2" stroke-linecap="round" stroke-linejoin="round" d="M210.052,341.071h-6
		c-0.736,0-1.333,0.597-1.333,1.333v6c0,0.736,0.597,1.333,1.333,1.333h6c0.736,0,1.333-0.597,1.333-1.333v-6
		C211.385,341.668,210.788,341.071,210.052,341.071z"/>
	<path fill="none" stroke="#FFCE00" stroke-width="2" stroke-linecap="round" stroke-linejoin="round" d="M200.052,345.07h-0.667
		c-0.354,0-0.693-0.14-0.943-0.391c-0.25-0.25-0.391-0.589-0.391-0.943v-6c0-0.354,0.14-0.693,0.391-0.943
		c0.25-0.25,0.589-0.391,0.943-0.391h6c0.354,0,0.693,0.14,0.943,0.391c0.25,0.25,0.391,0.589,0.391,0.943v0.667"/>
</g>
<g opacity="0.6">
	<path fill="none" stroke="#FFFFFF" stroke-width="2" stroke-linecap="round" stroke-linejoin="round" d="M325.329,341.071h-6
		c-0.736,0-1.333,0.597-1.333,1.333v6c0,0.736,0.597,1.333,1.333,1.333h6c0.736,0,1.333-0.597,1.333-1.333v-6
		C326.663,341.668,326.065,341.071,325.329,341.071z"/>
	<path fill="none" stroke="#FFFFFF" stroke-width="2" stroke-linecap="round" stroke-linejoin="round" d="M315.329,345.07h-0.667
		c-0.354,0-0.693-0.14-0.943-0.391c-0.25-0.25-0.391-0.589-0.391-0.943v-6c0-0.354,0.14-0.693,0.391-0.943
		c0.25-0.25,0.589-0.391,0.943-0.391h6c0.354,0,0.693,0.14,0.943,0.391c0.25,0.25,0.391,0.589,0.391,0.943v0.667"/>
</g>
<g>
	<circle fill="#323030" stroke="#6C6969" cx="159.532" cy="431.555" r="19.5"/>
	<path fill="#FFCE00" d="M163.956,435.695c0.975-0.546,0.849-2.652-0.281-4.706c-0.485-0.885-1.081-1.601-1.677-2.102
		c-0.713,0.533-1.576,0.822-2.464,0.825c-0.889-0.002-1.754-0.291-2.468-0.825c-0.596,0.501-1.191,1.218-1.677,2.102
		c-1.131,2.053-1.256,4.16-0.278,4.706c0.436,0.25,0.895,0.063,1.369-0.397c-0.089,0.495-0.133,0.998-0.133,1.501
		c0,2.354,0.906,4.256,2.021,4.256c0.672,0,1.005-0.693,1.165-1.753c0.159,1.053,0.493,1.753,1.16,1.753
		c1.11,0,2.023-1.903,2.023-4.256c0-0.529-0.049-1.034-0.133-1.501c0.477,0.461,0.935,0.651,1.372,0.398L163.956,435.695z
		 M159.533,428.911c0.451,0.007,0.899-0.077,1.317-0.246s0.799-0.421,1.121-0.74c0.321-0.319,0.576-0.699,0.75-1.119
		c0.174-0.419,0.264-0.87,0.263-1.324c0-0.455-0.09-0.905-0.264-1.324c-0.174-0.419-0.43-0.799-0.751-1.118s-0.702-0.57-1.121-0.739
		s-0.867-0.252-1.317-0.245c-0.893,0.014-1.744,0.382-2.371,1.023c-0.626,0.642-0.977,1.506-0.977,2.406s0.352,1.764,0.979,2.405
		C157.788,428.531,158.64,428.898,159.533,428.911z M166.363,431.086c0.726-0.021,1.416-0.327,1.922-0.853
		c0.506-0.525,0.789-1.229,0.789-1.962c0-0.732-0.283-1.436-0.789-1.961s-1.196-0.831-1.922-0.853c-0.74,0-1.451,0.297-1.974,0.825
		c-0.524,0.528-0.818,1.244-0.818,1.991s0.294,1.463,0.818,1.99c0.524,0.528,1.234,0.824,1.975,0.824L166.363,431.086z
		 M169.764,432.792c-0.399-0.728-0.887-1.316-1.376-1.727c-0.586,0.437-1.295,0.675-2.023,0.677c-0.601,0-1.16-0.166-1.65-0.441
		c0.394,0.876,0.638,1.763,0.683,2.556c0.075,1.215-0.302,2.115-1.055,2.536c-0.161,0.09-0.337,0.15-0.519,0.18
		c-0.045,0.314-0.076,0.641-0.076,0.986c0,1.933,0.743,3.495,1.659,3.495c0.551,0,0.826-0.569,0.957-1.439
		c0.13,0.865,0.404,1.439,0.954,1.439c0.91,0,1.661-1.562,1.661-3.493c0-0.435-0.042-0.849-0.111-1.234
		c0.391,0.379,0.768,0.535,1.127,0.327C170.794,436.205,170.691,434.476,169.764,432.792L169.764,432.792z M152.703,431.086
		c0.552,0,1.091-0.166,1.55-0.475c0.459-0.309,0.816-0.749,1.027-1.263s0.266-1.08,0.158-1.626c-0.108-0.546-0.374-1.047-0.764-1.44
		c-0.39-0.393-0.888-0.661-1.429-0.77c-0.541-0.108-1.102-0.053-1.612,0.16s-0.946,0.574-1.252,1.036
		c-0.307,0.463-0.47,1.007-0.47,1.563c0,0.747,0.294,1.463,0.818,1.991c0.524,0.528,1.234,0.825,1.974,0.825L152.703,431.086
		L152.703,431.086z M154.718,436.391c-1.265-0.709-1.381-2.823-0.362-5.091c-0.504,0.288-1.072,0.441-1.652,0.443
		c-0.76,0-1.456-0.256-2.027-0.678c-0.489,0.41-0.976,0.998-1.376,1.725c-0.927,1.686-1.029,3.415-0.228,3.862
		c0.358,0.207,0.735,0.052,1.124-0.325c-0.071,0.407-0.107,0.819-0.107,1.232c0,1.932,0.743,3.493,1.659,3.493
		c0.552,0,0.827-0.569,0.957-1.438c0.131,0.865,0.405,1.439,0.954,1.439c0.912,0,1.661-1.562,1.661-3.493
		c0-0.347-0.032-0.675-0.077-0.989C155.059,436.542,154.881,436.481,154.718,436.391L154.718,436.391z"/>
</g>
<path fill="none" stroke="#FFFFFF" stroke-width="2" stroke-linecap="round" stroke-linejoin="round" d="M228.571,338.07v14"/>
<path fill="none" stroke="#FFFFFF" stroke-width="2" stroke-linecap="round" stroke-linejoin="round" d="M221.571,345.07h14"/>
<g>
	<path fill="none" stroke="#000000" stroke-width="2" stroke-linecap="round" stroke-linejoin="round" d="M693.334,278.975l-7.692,8
		l-2.308-2.398"/>
	<circle fill="none" stroke="#000000" cx="688.334" cy="282.975" r="11.5"/>
</g>
<g>
	<circle fill="#69DD8A" cx="637.702" cy="282.975" r="12"/>
	<path fill="none" stroke="#FFFFFF" stroke-width="2" stroke-linecap="round" stroke-linejoin="round" d="M642.702,278.975l-7.692,8
		l-2.308-2.398"/>
</g>
<g>
	<path fill="none" stroke="#FFFFFF" stroke-width="2" stroke-linecap="round" stroke-linejoin="round" d="M831.135,275.975v14"/>
	<path fill="none" stroke="#FFFFFF" stroke-width="2" stroke-linecap="round" stroke-linejoin="round" d="M824.135,282.975h14"/>
</g>
<g>
	<path fill="none" stroke="#FFFFFF" stroke-width="2" stroke-linecap="round" stroke-linejoin="round" d="M791.135,274.975h-14
		c-1.105,0-2,0.895-2,2v14c0,1.105,0.895,2,2,2h14c1.105,0,2-0.895,2-2v-14C793.135,275.87,792.24,274.975,791.135,274.975z"/>
	<path fill="none" stroke="#FFFFFF" stroke-width="2" stroke-linecap="round" stroke-linejoin="round" d="M788.135,272.975v4"/>
	<path fill="none" stroke="#FFFFFF" stroke-width="2" stroke-linecap="round" stroke-linejoin="round" d="M780.135,272.975v4"/>
	<path fill="none" stroke="#FFFFFF" stroke-width="2" stroke-linecap="round" stroke-linejoin="round" d="M775.135,280.975h18"/>
</g>
<g>
	<path fill="none" stroke="#FFFFFF" stroke-width="2" stroke-linecap="round" stroke-linejoin="round" d="M865.135,283.975
		c0.552,0,1-0.448,1-1s-0.448-1-1-1s-1,0.448-1,1S864.583,283.975,865.135,283.975z"/>
	<path fill="none" stroke="#FFFFFF" stroke-width="2" stroke-linecap="round" stroke-linejoin="round" d="M865.135,276.975
		c0.552,0,1-0.448,1-1s-0.448-1-1-1s-1,0.448-1,1S864.583,276.975,865.135,276.975z"/>
	<path fill="none" stroke="#FFFFFF" stroke-width="2" stroke-linecap="round" stroke-linejoin="round" d="M865.135,290.975
		c0.552,0,1-0.448,1-1s-0.448-1-1-1s-1,0.448-1,1S864.583,290.975,865.135,290.975z"/>
</g>
<g>
	<path fill="none" stroke="#D8D8D8" stroke-width="2" stroke-linecap="round" stroke-linejoin="round" stroke-opacity="0.5" d="
		M740.135,278.975l-7.692,8l-2.308-2.398"/>
	<circle fill="none" stroke="#757577" cx="735.135" cy="282.975" r="11.5"/>
</g>
<g>
	<path fill="none" stroke="#000000" stroke-width="2" stroke-linecap="round" stroke-linejoin="round" d="M587.135,277.561
		l-5.935,5.559l6.064,5.441"/>
	<circle fill="none" stroke="#4F515A" cx="584.073" cy="282.975" r="15.5"/>
</g>
<g>
	<path fill="none" stroke="#0068FF" d="M898.638,270h16c2.485,0,4.5,2.015,4.5,4.5v16c0,2.485-2.015,4.5-4.5,4.5h-16
		c-2.485,0-4.5-2.015-4.5-4.5v-16C894.138,272.014,896.152,270,898.638,270z"/>
	<path fill="none" stroke="#FFFFFF" stroke-width="2" stroke-linecap="round" stroke-linejoin="round" d="M902.136,284.75l4.5-4.5
		l4.5,4.5"/>
</g>
<g>
	<circle fill="#0068FF" cx="952.01" cy="282.975" r="8.5"/>
	<path fill="#FFFFFF" d="M952.24,279.624c-0.331,0-0.608-0.112-0.832-0.336s-0.336-0.501-0.336-0.832s0.112-0.608,0.336-0.832
		s0.501-0.336,0.832-0.336c0.32,0,0.592,0.112,0.816,0.336s0.336,0.501,0.336,0.832s-0.112,0.608-0.336,0.832
		S952.56,279.624,952.24,279.624z M953.135,280.792v8.816h-1.824v-8.816H953.135z"/>
</g>
<g>
	<path fill="none" stroke="#FFFFFF" stroke-width="2" stroke-linecap="round" stroke-linejoin="round" stroke-opacity="0.5" d="
		M997.187,283.5v6c0,0.53-0.211,1.039-0.586,1.414s-0.884,0.586-1.414,0.586h-11c-0.53,0-1.039-0.211-1.414-0.586
		s-0.586-0.884-0.586-1.414v-11c0-0.53,0.211-1.039,0.586-1.414s0.884-0.586,1.414-0.586h6"/>
	<path fill="none" stroke="#FFFFFF" stroke-width="2" stroke-linecap="round" stroke-linejoin="round" stroke-opacity="0.5" d="
		M994.187,273.5h6v6"/>
	<path fill="none" stroke="#FFFFFF" stroke-width="2" stroke-linecap="round" stroke-linejoin="round" stroke-opacity="0.5" d="
		M989.187,284.5l11-11"/>
</g>
<g>
	<path fill="none" stroke="#FFFFFF" stroke-width="2" stroke-linecap="round" stroke-linejoin="round" d="M1034.135,284.75v4.5
		c0,0.398-0.158,0.779-0.439,1.061c-0.281,0.281-0.663,0.439-1.061,0.439h-8.25c-0.398,0-0.779-0.158-1.061-0.439
		c-0.281-0.281-0.439-0.663-0.439-1.061V281c0-0.398,0.158-0.779,0.439-1.061c0.281-0.281,0.663-0.439,1.061-0.439h4.5"/>
	<path fill="none" stroke="#FFFFFF" stroke-width="2" stroke-linecap="round" stroke-linejoin="round" d="M1031.885,277.25h4.5v4.5"
		/>
	<path fill="none" stroke="#FFFFFF" stroke-width="2" stroke-linecap="round" stroke-linejoin="round" d="M1028.135,285.5l8.25-8.25
		"/>
</g>
<g>
	<path fill="none" stroke="#FFFFFF" stroke-width="2" stroke-linecap="round" stroke-linejoin="round" d="M1059.937,278.7
		l6.031,5.968L1060,290.7"/>
</g>
<path fill="none" stroke="#69DD8A" stroke-width="2" stroke-linecap="round" stroke-linejoin="round" d="M1098.385,280.375
	l-8.25,8.25l-3.75-3.75"/>
<g>
	<path fill="none" stroke="#000000" stroke-width="2" stroke-linecap="round" stroke-linejoin="round" d="M1122.135,289.625
		c4.142,0,7.5-3.358,7.5-7.5s-3.358-7.5-7.5-7.5s-7.5,3.358-7.5,7.5S1117.993,289.625,1122.135,289.625z"/>
	<path fill="none" stroke="#000000" stroke-width="2" stroke-linecap="round" stroke-linejoin="round" d="M1122.135,277.625v4.5
		l3,1.5"/>
</g>
<g>
	<path fill="#0068FF" stroke="#0068FF" stroke-linecap="round" stroke-linejoin="round" d="M1159.216,292.5c5.523,0,10-4.477,10-10
		s-4.477-10-10-10s-10,4.477-10,10S1153.693,292.5,1159.216,292.5z"/>
	<path fill="none" stroke="#FFFFFF" stroke-width="2" stroke-linecap="round" stroke-linejoin="round" d="M1156.306,279.501
		c0.235-0.668,0.699-1.232,1.31-1.591s1.329-0.49,2.027-0.37s1.332,0.483,1.788,1.025c0.456,0.542,0.706,1.228,0.705,1.937
		c0,2-3,3-3,3"/>
	<path fill="none" stroke="#FFFFFF" stroke-width="2" stroke-linecap="round" stroke-linejoin="round" d="M1159.216,287.5h0.01"/>
</g>
<g>
	<path d="M243.784,394.443c-0.733,0-1.361-0.241-1.884-0.724c-0.523-0.483-0.784-1.062-0.783-1.738v-5.601l3.667-3.847l1.9,1.754
		l-2.667,2.77h18.2l-2.6-2.708l1.9-1.754l3.6,3.786v5.601c0,0.677-0.261,1.257-0.784,1.74s-1.15,0.724-1.883,0.723h-18.666
		L243.784,394.443L243.784,394.443z M243.784,391.981h18.667v-2.462h-18.667V391.981z M251.284,385.056l-4.7-4.34
		c-0.511-0.472-0.761-1.051-0.749-1.738c0.012-0.687,0.273-1.267,0.783-1.74l6.533-6.032c0.511-0.472,1.145-0.718,1.9-0.739
		c0.756-0.021,1.389,0.205,1.9,0.677l4.7,4.34c0.511,0.472,0.778,1.047,0.8,1.724c0.022,0.677-0.222,1.251-0.733,1.724l-6.667,6.155
		c-0.511,0.472-1.139,0.703-1.883,0.693C252.424,385.77,251.796,385.529,251.284,385.056z M259.784,377.239l-4.7-4.34l-6.6,6.094
		l4.7,4.34L259.784,377.239z"/>
</g>
<path fill="none" stroke="#FFFFFF" stroke-width="2" stroke-linecap="round" stroke-linejoin="round" d="M263.761,340.375
	l-8.25,8.25l-3.75-3.75"/>
<g>
	<path fill="none" stroke="#FFFFFF" stroke-width="2" stroke-linecap="round" stroke-linejoin="round" d="M294.413,340l-9,9"/>
	<path fill="none" stroke="#FFFFFF" stroke-width="2" stroke-linecap="round" stroke-linejoin="round" d="M285.413,340l9,9"/>
</g>
<g>
	<path fill="#0068FF" d="M1186.667,276.465l11.682,4.098v14.909l-11.682-4.451V276.465z"/>
	<path fill="#0068FF" d="M1199.055,280.681l11.611-4.216v14.508l-11.611,4.569V280.681z"/>
	<path fill="#0068FF" d="M1198.561,271.353l11.705,4.499l-11.705,3.839l-11.494-3.839L1198.561,271.353z"/>
</g>
<g>
	<circle fill="none" stroke="#FF223D" stroke-miterlimit="10" cx="1237.302" cy="284.5" r="10.25"/>
	<g>
		<path fill="#FF2E2E" d="M1237.352,286.575c-0.345,0-0.675-0.137-0.919-0.381c-0.244-0.244-0.381-0.574-0.381-0.919v-6
			c0-0.345,0.137-0.675,0.381-0.919s0.574-0.381,0.919-0.381s0.675,0.137,0.919,0.381s0.381,0.574,0.381,0.919v6
			c0,0.345-0.137,0.675-0.381,0.919C1238.028,286.438,1237.697,286.575,1237.352,286.575z"/>
		<path fill="#FF2E2E" d="M1237.302,291.025c0.828,0,1.5-0.672,1.5-1.5s-0.672-1.5-1.5-1.5s-1.5,0.672-1.5,1.5
			S1236.474,291.025,1237.302,291.025z"/>
	</g>
</g>
</svg>
