<?xml version="1.0" encoding="utf-8"?>
<!-- Generator: Adobe Illustrator 17.0.0, SVG Export Plug-In . SVG Version: 6.00 Build 0)  -->
<!DOCTYPE svg PUBLIC "-//W3C//DTD SVG 1.1//EN" "http://www.w3.org/Graphics/SVG/1.1/DTD/svg11.dtd">
<svg version="1.1" id="Layer_1" xmlns="http://www.w3.org/2000/svg" xmlns:xlink="http://www.w3.org/1999/xlink" x="0px" y="0px"
	 width="45px" height="45px" viewBox="-11.5 -13 45 45" enable-background="new -11.5 -13 45 45" xml:space="preserve">
<g>
	
		<linearGradient id="SVGID_1_" gradientUnits="userSpaceOnUse" x1="736.9918" y1="-3728.2542" x2="705.4636" y2="-3721.4998" gradientTransform="matrix(1 0 0 1 -708.6599 3734.041)">
		<stop  offset="0" style="stop-color:#B637F8"/>
		<stop  offset="1" style="stop-color:#7243E9"/>
	</linearGradient>
	<path fill="url(#SVGID_1_)" d="M11-13L11-13C23.426-13,33.5-2.926,33.5,9.5l0,0C33.5,21.926,23.426,32,11,32l0,0
		C-1.426,32-11.5,21.926-11.5,9.5l0,0C-11.5-2.926-1.426-13,11-13z"/>
	<path fill="#FFFFFF" d="M7.5,7.25l-1.1-2.4L4,3.75l2.4-1.1l1.1-2.4l1.1,2.4l2.4,1.1l-2.4,1.1L7.5,7.25z M14,10.25L13.05,8.2
		L11,7.25l2.05-0.95L14,4.25l0.95,2.05L17,7.25L14.95,8.2L14,10.25z M3,12.25L2.05,10.2L0,9.25L2.05,8.3L3,6.25L3.95,8.3L6,9.25
		L3.95,10.2L3,12.25z M3.5,18.75L2,17.25l7.5-7.5l4,4l7.1-7.975l1.4,1.4l-8.5,9.575l-4-4L3.5,18.75z"/>
</g>
</svg>
