<svg width="45" height="45" viewBox="0 0 45 45" fill="none" xmlns="http://www.w3.org/2000/svg">
<path d="M22.5 0C34.926 0 45 10.074 45 22.5C45 34.926 34.926 45 22.5 45C10.074 45 0 34.926 0 22.5C0 10.074 10.074 0 22.5 0Z" fill="url(#paint0_linear_8381_640)"/>
<path d="M17.109 16.4934C17.1649 16.6295 17.298 16.7128 17.4371 16.7128C17.4828 16.7128 17.5285 16.7037 17.5732 16.6854C17.7541 16.6102 17.8404 16.4019 17.7652 16.2211L15.9519 11.8448C15.8768 11.663 15.6675 11.5787 15.4877 11.6528C15.3069 11.727 15.2205 11.9352 15.2957 12.1171L17.109 16.4934Z" fill="white"/>
<path d="M13.7046 19.6286C13.795 19.6286 13.8864 19.594 13.9565 19.524C14.0957 19.3848 14.0957 19.1603 13.9565 19.0211L10.6072 15.6729C10.4681 15.5337 10.2436 15.5337 10.1044 15.6729C9.96521 15.812 9.96521 16.0365 10.1044 16.1757L13.4536 19.525C13.5227 19.594 13.6141 19.6286 13.7046 19.6286Z" fill="white"/>
<path d="M22.0001 15.448C22.1961 15.448 22.3556 15.2885 22.3556 15.0925V10.3555C22.3556 10.1595 22.1972 10 22.0001 10C21.803 10 21.6445 10.1595 21.6445 10.3555V15.0925C21.6445 15.2885 21.804 15.448 22.0001 15.448Z" fill="white"/>
<path d="M26.4281 16.6844C26.4728 16.7026 26.5185 16.7118 26.5643 16.7118C26.7034 16.7118 26.8365 16.6285 26.8924 16.4924L28.7047 12.1171C28.7798 11.9363 28.6935 11.728 28.5127 11.6528C28.3308 11.5787 28.1236 11.663 28.0484 11.8448L26.2361 16.2201C26.161 16.4009 26.2473 16.6092 26.4281 16.6844Z" fill="white"/>
<path d="M33.8949 15.6729C33.7558 15.5337 33.5323 15.5337 33.3931 15.6729L30.0438 19.0221C29.9047 19.1613 29.9047 19.3858 30.0438 19.525C30.1129 19.594 30.2033 19.6296 30.2947 19.6296C30.3862 19.6296 30.4766 19.5951 30.5457 19.525L33.8949 16.1757C34.0341 16.0365 34.0341 15.811 33.8949 15.6729Z" fill="white"/>
<path d="M31.3174 23.1886V23.1866C31.3174 23.1114 31.289 23.0454 31.2494 22.9885C31.2453 22.9824 31.2473 22.9743 31.2423 22.9682L28.1673 19.0541C28.1602 19.045 28.15 19.0419 28.1419 19.0338C28.1185 19.0094 28.0962 18.984 28.0647 18.9657C28.0606 18.9637 28.0566 18.9637 28.0525 18.9617C28.0362 18.9535 28.019 18.9505 28.0007 18.9444C27.9692 18.9342 27.9397 18.9241 27.9072 18.923C27.9001 18.923 27.894 18.918 27.8869 18.918H21.9858H21.9848H16.1122C16.1051 18.918 16.099 18.922 16.0919 18.923C16.0604 18.923 16.0309 18.9322 16.0004 18.9423C15.9821 18.9484 15.9639 18.9515 15.9476 18.9606C15.9435 18.9627 15.9385 18.9627 15.9344 18.9647C15.9029 18.983 15.8795 19.0084 15.8562 19.0338C15.8491 19.0419 15.8389 19.045 15.8328 19.0531L12.7578 22.9672C12.7528 22.9732 12.7548 22.9814 12.7507 22.9865C12.7101 23.0444 12.6816 23.1104 12.6816 23.1856L12.6827 23.1886C12.6827 23.1917 12.6837 23.1937 12.6837 23.1957C12.6857 23.2709 12.7152 23.3369 12.7568 23.3938C12.7609 23.3989 12.7588 23.407 12.7639 23.4121L14.5559 25.5637L12.9529 26.2941C12.77 26.3753 12.6989 26.5887 12.7802 26.7614C12.831 26.8934 12.963 26.9747 13.0951 26.9747C13.1459 26.9747 13.1967 26.9645 13.2475 26.9442L15.0303 26.1336L15.3401 26.5064L13.5624 27.3109C13.3795 27.3922 13.2983 27.6055 13.3795 27.7782C13.4405 27.9103 13.5725 27.9916 13.7046 27.9916C13.7554 27.9916 13.8062 27.9814 13.8468 27.9611L15.8094 27.0702L16.1173 27.4389L14.1628 28.3268C13.9799 28.4081 13.9088 28.6214 13.9901 28.8042C14.0408 28.9363 14.1729 29.0074 14.305 29.0074C14.3558 29.0074 14.4066 28.9972 14.4573 28.9769L16.5927 28.0088L21.7278 34.1761C21.741 34.1923 21.7603 34.1994 21.7755 34.2126C21.7898 34.2248 21.8009 34.235 21.8172 34.2451C21.8731 34.2797 21.934 34.3041 22.0011 34.3041C22.0681 34.3041 22.1291 34.2797 22.1849 34.2451C22.2012 34.235 22.2134 34.2248 22.2276 34.2116C22.2428 34.1984 22.2611 34.1913 22.2743 34.1761L31.2372 23.4121C31.2413 23.407 31.2402 23.3999 31.2443 23.3938C31.2859 23.3379 31.3144 23.2719 31.3174 23.1978C31.3154 23.1957 31.3174 23.1927 31.3174 23.1886ZM16.0665 19.9054L17.7528 22.831H13.7676L16.0665 19.9054ZM25.136 23.5411L22 32.8382L18.8631 23.5421H25.136V23.5411ZM19.1831 22.831L22 19.7957L24.817 22.831H19.1831ZM16.7928 24.5488C16.9756 24.4777 17.1788 24.5488 17.2601 24.7317C17.3414 24.9044 17.2702 25.1177 17.0874 25.199L15.7018 25.8298L15.2274 25.2599L16.7928 24.5488ZM17.3921 25.5748C17.575 25.4936 17.7883 25.5647 17.8696 25.7475C17.9509 25.9304 17.8696 26.1336 17.6867 26.2148L16.4799 26.7654L16.0116 26.2026L17.3921 25.5748ZM18.0017 26.5907C18.1845 26.5094 18.3877 26.5907 18.4689 26.7634C18.5502 26.9462 18.4689 27.1596 18.2963 27.2408L17.2631 27.7061L16.7887 27.1362L18.0017 26.5907ZM26.2473 22.831L27.9336 19.9064L30.2325 22.831H26.2473Z" fill="white"/>
<path d="M29.723 27.8912C28.952 27.8912 28.3252 28.518 28.3252 29.29C28.3252 30.061 28.952 30.6878 29.723 30.6878C30.4951 30.6878 31.1218 30.061 31.1218 29.29C31.1208 28.519 30.494 27.8912 29.723 27.8912ZM29.723 29.9777C29.3441 29.9777 29.0353 29.6689 29.0353 29.29C29.0353 28.9111 29.3441 28.6013 29.723 28.6013C30.1019 28.6013 30.4118 28.9111 30.4118 29.29C30.4118 29.6689 30.1019 29.9777 29.723 29.9777Z" fill="white"/>
<path d="M28.1443 31.3076C27.549 31.3076 27.0654 31.7922 27.0654 32.3865C27.0654 32.9807 27.55 33.4653 28.1443 33.4653C28.7385 33.4653 29.2231 32.9807 29.2231 32.3865C29.2231 31.7922 28.7396 31.3076 28.1443 31.3076ZM28.1443 32.7562C27.9411 32.7562 27.7755 32.5906 27.7755 32.3875C27.7755 32.1843 27.9411 32.0187 28.1443 32.0187C28.3474 32.0187 28.513 32.1843 28.513 32.3875C28.513 32.5906 28.3474 32.7562 28.1443 32.7562Z" fill="white"/>
<defs>
<linearGradient id="paint0_linear_8381_640" x1="39.8319" y1="18.787" x2="8.3036" y2="25.5416" gradientUnits="userSpaceOnUse">
<stop stop-color="#B637F8"/>
<stop offset="1" stop-color="#7243E9"/>
</linearGradient>
</defs>
</svg>
