<?xml version="1.0" encoding="utf-8"?>
<!-- Generator: Adobe Illustrator 17.0.0, SVG Export Plug-In . SVG Version: 6.00 Build 0)  -->
<!DOCTYPE svg PUBLIC "-//W3C//DTD SVG 1.1//EN" "http://www.w3.org/Graphics/SVG/1.1/DTD/svg11.dtd">
<svg version="1.1" id="Layer_1" xmlns="http://www.w3.org/2000/svg" xmlns:xlink="http://www.w3.org/1999/xlink" x="0px" y="0px"
	 width="150px" height="65px" viewBox="0 0 150 65" enable-background="new 0 0 150 65" xml:space="preserve">
<g>
	<path fill="#FFFFFF" d="M2.902,0.992h6.196l5.656,10.906l5.629-10.906H26.5l-8.872,17.189v13.128h-5.813V18.181L2.902,0.992z"/>
	<path fill="#FFFFFF" d="M49.114,0.992h5.772v24.814h8.409v5.503h-14.18L49.114,0.992L49.114,0.992z"/>
	<path fill="#FFFFFF" d="M66.319,0.992h5.771v24.814h8.409v5.503h-14.18L66.319,0.992L66.319,0.992z"/>
	<path fill="#FFFFFF" d="M96.742,0.23c4.291,0,7.979,1.553,11.065,4.658c3.087,3.106,4.63,6.891,4.63,11.356
		c0,4.424-1.523,8.168-4.567,11.232c-3.047,3.064-6.741,4.596-11.085,4.596c-4.551,0-8.332-1.573-11.343-4.72
		c-3.011-3.146-4.516-6.884-4.516-11.212c0-2.899,0.701-5.564,2.103-7.997c1.403-2.431,3.331-4.359,5.786-5.781
		C91.268,0.941,93.912,0.23,96.742,0.23z M96.683,5.877c-2.807,0-5.167,0.976-7.077,2.927c-1.912,1.951-2.869,4.431-2.869,7.44
		c0,3.352,1.204,6.005,3.612,7.955c1.87,1.526,4.015,2.288,6.436,2.288c2.736,0,5.068-0.989,6.993-2.968
		c1.928-1.978,2.889-4.418,2.889-7.316c0-2.886-0.97-5.329-2.909-7.327C101.819,6.876,99.46,5.877,96.683,5.877z"/>
	<path fill="#FFFFFF" d="M112.554,0.992h5.678l4.381,19.353l5.413-19.353h4.799l5.492,19.353l4.338-19.353h5.678l-6.831,30.317
		h-5.534l-5.587-19.6l-5.482,19.6h-5.483L112.554,0.992z"/>
	<path fill="#FFFFFF" d="M11.831,64.486V32.744h4.991c2.894,0,5.011,0.187,6.351,0.563c1.902,0.503,3.414,1.437,4.537,2.804
		c1.125,1.368,1.686,2.979,1.686,4.833c0,1.21-0.256,2.306-0.766,3.293c-0.51,0.984-1.341,1.908-2.492,2.772
		c1.928,0.906,3.336,2.039,4.228,3.399c0.893,1.36,1.337,2.968,1.337,4.822c0,1.783-0.459,3.41-1.382,4.878
		c-0.921,1.467-2.109,2.564-3.564,3.29c-1.454,0.726-3.462,1.09-6.026,1.09L11.831,64.486L11.831,64.486z M17.874,38.505v6.689h1.32
		c1.473,0,2.566-0.308,3.282-0.927c0.715-0.619,1.073-1.46,1.073-2.524c0-0.994-0.339-1.781-1.017-2.363
		c-0.68-0.582-1.711-0.875-3.098-0.875L17.874,38.505L17.874,38.505z M17.874,50.59v8.134h1.514c2.511,0,4.201-0.316,5.075-0.949
		c0.871-0.633,1.309-1.553,1.309-2.762c0-1.368-0.512-2.445-1.538-3.236c-1.023-0.791-2.725-1.187-5.105-1.187L17.874,50.59
		L17.874,50.59z"/>
	<path fill="#FFFFFF" d="M35.703,32.687h5.772v26.296h8.409v5.503h-14.18L35.703,32.687L35.703,32.687z"/>
	<path fill="#FFFFFF" d="M67.356,32.645c4.288,0,7.976,1.551,11.062,4.658c3.087,3.105,4.63,6.889,4.63,11.355
		c0,4.423-1.522,8.168-4.567,11.232s-6.74,4.596-11.085,4.596c-4.551,0-8.331-1.573-11.343-4.719
		c-3.01-3.147-4.516-6.885-4.516-11.213c0-2.9,0.701-5.565,2.104-7.996c1.402-2.433,3.331-4.361,5.784-5.781
		C61.88,33.354,64.522,32.645,67.356,32.645z M67.292,38.292c-2.805,0-5.164,0.975-7.076,2.925
		c-1.911,1.952-2.867,4.432-2.867,7.441c0,3.352,1.203,6.005,3.611,7.955c1.87,1.526,4.016,2.288,6.436,2.288
		c2.737,0,5.068-0.989,6.994-2.969c1.926-1.978,2.889-4.416,2.889-7.315c0-2.886-0.969-5.328-2.91-7.326
		C72.429,39.29,70.072,38.292,67.292,38.292z"/>
	<path fill="#FFFFFF" d="M85.229,58.295l4.103-3.912c2.792,2.949,5.933,4.425,9.422,4.425c2.944,0,5.425-1.006,7.442-3.02
		s3.026-4.496,3.026-7.445c0-2.056-0.446-3.881-1.339-5.475c-0.893-1.594-2.156-2.846-3.79-3.753
		c-1.634-0.91-3.447-1.365-5.444-1.365c-1.702,0-3.257,0.319-4.666,0.955c-1.41,0.636-2.959,1.792-4.65,3.471l-3.977-4.151
		c2.277-2.222,4.429-3.763,6.454-4.623c2.025-0.859,4.337-1.288,6.935-1.288c4.791,0,8.714,1.52,11.765,4.555
		c3.052,3.04,4.579,6.933,4.579,11.682c0,3.074-0.695,5.805-2.084,8.194c-1.391,2.388-3.38,4.309-5.972,5.762
		c-2.592,1.451-5.381,2.179-8.37,2.179c-2.542,0-4.99-0.537-7.344-1.611C88.963,61.801,86.935,60.273,85.229,58.295z"/>
	<path fill="#FFFFFF" d="M119.23,32.759h6.104v10.937l8.613-10.937h7.25l-11.078,14.159l12.157,17.568h-7.161l-9.781-14.097v14.097
		h-6.104L119.23,32.759L119.23,32.759z"/>
	<g>
		<rect x="39.044" y="13.402" fill="#FFFFFF" width="6.998" height="5.544"/>
		<polygon fill="#FFFFFF" points="29.493,0.992 29.493,31.309 46.042,31.309 46.042,25.641 35.222,25.641 35.222,20.184 
			35.222,17.665 35.222,12.121 35.222,8.731 35.222,6.639 46.042,6.639 46.042,0.992 		"/>
	</g>
</g>
</svg>
