<?xml version="1.0" encoding="utf-8"?>
<!-- Generator: Adobe Illustrator 17.0.0, SVG Export Plug-In . SVG Version: 6.00 Build 0)  -->
<!DOCTYPE svg PUBLIC "-//W3C//DTD SVG 1.1//EN" "http://www.w3.org/Graphics/SVG/1.1/DTD/svg11.dtd">
<svg version="1.1" id="Layer_1" xmlns="http://www.w3.org/2000/svg" xmlns:xlink="http://www.w3.org/1999/xlink" x="0px" y="0px"
	 width="33px" height="65px" viewBox="58.5 0 33 65" enable-background="new 58.5 0 33 65" xml:space="preserve">
<g>
	<path fill="#D60000" d="M75.061,0.23c4.291,0,7.979,1.553,11.065,4.658c3.087,3.106,4.63,6.891,4.63,11.356
		c0,4.424-1.523,8.168-4.567,11.232c-3.047,3.064-6.741,4.596-11.085,4.596c-4.551,0-8.332-1.573-11.343-4.72
		c-3.011-3.146-4.516-6.884-4.516-11.212c0-2.899,0.701-5.564,2.103-7.997c1.403-2.431,3.331-4.359,5.786-5.781
		C69.587,0.941,72.231,0.23,75.061,0.23z M75.002,5.877c-2.807,0-5.167,0.976-7.077,2.927c-1.912,1.951-2.869,4.431-2.869,7.44
		c0,3.352,1.204,6.005,3.612,7.955c1.87,1.526,4.015,2.288,6.436,2.288c2.736,0,5.068-0.989,6.993-2.968
		c1.928-1.978,2.889-4.418,2.889-7.316c0-2.886-0.97-5.329-2.909-7.327C80.138,6.876,77.779,5.877,75.002,5.877z"/>
	<path fill="#D60000" d="M60.896,58.295l4.103-3.912c2.792,2.949,5.933,4.425,9.422,4.425c2.944,0,5.425-1.006,7.442-3.02
		s3.026-4.496,3.026-7.445c0-2.056-0.446-3.881-1.339-5.475c-0.893-1.594-2.156-2.846-3.79-3.753
		c-1.634-0.91-3.447-1.365-5.444-1.365c-1.702,0-3.257,0.319-4.666,0.955c-1.41,0.636-2.959,1.792-4.65,3.471l-3.977-4.151
		c2.277-2.222,4.429-3.763,6.454-4.623c2.025-0.859,4.337-1.288,6.935-1.288c4.791,0,8.714,1.52,11.765,4.555
		c3.052,3.04,4.579,6.933,4.579,11.682c0,3.074-0.695,5.805-2.084,8.194c-1.391,2.388-3.38,4.309-5.972,5.762
		c-2.592,1.451-5.381,2.179-8.37,2.179c-2.542,0-4.99-0.537-7.344-1.611C64.63,61.801,62.602,60.273,60.896,58.295z"/>
</g>
</svg>
